<?xml version="1.0" standalone="no"?>
<!DOCTYPE svg PUBLIC "-//W3C//DTD SVG 20010904//EN"
 "http://www.w3.org/TR/2001/REC-SVG-20010904/DTD/svg10.dtd">
<svg version="1.0" xmlns="http://www.w3.org/2000/svg"
 width="700.000000pt" height="700.000000pt" viewBox="0 0 700.000000 700.000000"
 preserveAspectRatio="xMidYMid meet">
<metadata>
Created by potrace 1.14, written by Peter Selinger 2001-2017
</metadata>
<g transform="translate(0.000000,700.000000) scale(0.100000,-0.100000)"
fill="#000000" stroke="none">
<path d="M4770 6994 c-86 -32 -131 -72 -163 -142 -18 -42 -20 -69 -20 -309 -1
-174 -5 -263 -12 -264 -5 -1 -127 -2 -270 -3 -260 -2 -260 -2 -310 -28 -104
-55 -148 -159 -121 -287 13 -60 89 -135 157 -155 30 -9 102 -14 220 -14 96 0
210 -1 255 -1 l80 -1 0 -257 c1 -184 4 -269 14 -298 19 -60 65 -111 126 -141
47 -23 63 -26 117 -21 93 8 156 48 199 129 22 41 23 54 26 316 3 247 5 272 20
272 9 1 132 2 272 3 240 2 257 3 295 24 46 25 96 75 117 118 21 42 23 142 4
187 -23 55 -75 109 -126 132 -41 18 -67 20 -310 21 l-265 1 -5 274 c-4 241 -7
280 -24 312 -21 43 -84 104 -124 119 -32 13 -130 21 -152 13z"/>
<path d="M2779 5776 c-125 -35 -245 -128 -300 -232 -15 -27 -64 -150 -108
-274 -45 -124 -87 -236 -92 -250 -6 -13 -29 -74 -50 -135 -22 -60 -43 -117
-46 -125 -16 -41 -55 -148 -96 -260 -138 -380 -209 -566 -220 -576 -7 -7 -118
-51 -247 -98 -129 -47 -257 -95 -285 -106 -27 -11 -117 -44 -200 -74 -82 -30
-256 -93 -385 -141 -129 -48 -284 -104 -344 -126 -146 -53 -199 -83 -266 -150
-98 -99 -142 -214 -136 -358 4 -95 25 -162 76 -241 62 -96 142 -152 300 -210
41 -15 359 -132 705 -260 347 -128 655 -241 685 -252 88 -32 108 -45 119 -81
5 -17 59 -167 121 -332 61 -165 129 -347 150 -405 43 -116 93 -254 116 -315 8
-22 26 -69 39 -105 144 -397 165 -444 232 -517 96 -103 218 -153 365 -148 139
4 247 52 336 149 71 78 74 85 337 806 31 85 67 182 80 215 12 33 76 205 141
383 65 177 124 322 130 322 6 0 83 27 170 59 88 33 296 109 464 171 168 61
314 115 325 120 20 9 209 78 450 165 186 66 233 92 306 165 99 98 141 201 140
345 -1 123 -46 229 -136 321 -74 75 -106 92 -370 188 -115 43 -219 81 -230 86
-11 4 -36 13 -55 20 -19 7 -44 16 -55 20 -11 5 -146 54 -300 110 -154 56 -289
106 -300 111 -11 5 -107 40 -214 79 -107 39 -201 76 -208 82 -7 6 -19 31 -27
57 -8 25 -44 127 -81 226 -73 198 -81 218 -250 680 -64 176 -121 329 -125 340
-5 11 -32 83 -61 160 -73 197 -127 272 -244 341 -96 56 -255 78 -356 50z"/>
<path d="M6196 5295 c-56 -20 -105 -63 -134 -120 -25 -46 -26 -58 -27 -197 0
-141 -1 -148 -20 -148 -11 -1 -73 -1 -138 -1 -76 -1 -134 -6 -161 -15 -125
-43 -192 -184 -149 -310 21 -62 89 -127 150 -145 29 -8 100 -14 182 -14 l134
0 2 -150 c1 -146 2 -152 30 -204 77 -141 265 -171 377 -59 62 62 71 93 74 253
2 77 3 145 3 150 1 6 57 10 149 11 136 0 151 2 197 25 153 77 179 284 51 397
-54 47 -119 61 -269 59 -107 -2 -127 0 -128 13 0 8 -1 78 -3 155 -2 106 -7
148 -19 171 -61 117 -185 171 -301 129z"/>
</g>
</svg>
